<?xml version="1.0" encoding="utf-8"?>
<!-- Generator: Adobe Illustrator 22.0.0, SVG Export Plug-In . SVG Version: 6.00 Build 0)  -->
<svg version="1.1" id="Layer_1" xmlns="http://www.w3.org/2000/svg" xmlns:xlink="http://www.w3.org/1999/xlink" x="0px" y="0px"
	 viewBox="0 0 512 512" style="enable-background:new 0 0 512 512;" xml:space="preserve">
<style type="text/css">
	.st0{fill:#F15A29;}
</style>
<g>
	<path class="st0" d="M394.2,388.1L394.2,388.1h-11.1h-46.6l-52.6,52.6l-10.6,10.6l-6.6,6.6l-3.1,3.1c-0.4,0.4-0.8,0.7-1.2,1h4.3
		h43.4c27.1,0,51.7-11,69.5-28.8c12.2-12.2,21.3-27.7,25.7-45H394.2z"/>
	<path class="st0" d="M245.5,457.9l-6.5-6.5l-10.6-10.6l-52.6-52.6h-46.6H118h0h-11c4.4,17.3,13.5,32.8,25.7,45
		c17.7,17.8,42.4,28.8,69.5,28.8h43.3h4.3c-0.4-0.3-0.8-0.6-1.2-1L245.5,457.9z"/>
	<path class="st0" d="M37.4,72.6c0-6.4,0-11.9,0-15.7c0-3.9,0-6.1,0-6.1c0-3.4,1.3-6.3,3.5-8.6c2.2-2.2,5.2-3.5,8.6-3.5
		c0,0,3.8,0,9.6,0s13.5,0,21.4,0c17.3,0,35.3,0,35.3,0V17.4c0,0-18.1,0-35.3,0c-7.9,0-15.6,0-21.4,0s-9.5,0-9.6,0
		c-9.2,0-17.6,3.7-23.6,9.8c-6,6-9.8,14.4-9.8,23.6c0,0,0,2.3,0,6.1c0,11.6,0,37.6,0,60.2h21.2C37.4,101.9,37.4,85.4,37.4,72.6z"/>
	<path class="st0" d="M462.7,38.6c3.4,0,6.3,1.3,8.6,3.5c2.2,2.2,3.5,5.2,3.5,8.6c0,0,0,2.3,0,6.1c0,11.6,0,37.6,0,60.2H496
		c0-15.1,0-31.7,0-44.5c0-6.4,0-11.9,0-15.7c0-3.9,0-6.1,0-6.1c0-9.2-3.8-17.6-9.8-23.6c-6-6-14.4-9.8-23.6-9.8c0,0-15.1,0-31,0
		c-8.6,0-17.5,0-24.2,0c-6.7,0-11.2,0-11.2,0v21.2c0,0,18.1,0,35.3,0C447.5,38.6,462.7,38.6,462.7,38.6z"/>
	<path class="st0" d="M474.8,462.6c0,3.4-1.3,6.3-3.5,8.6c-2.2,2.2-5.2,3.5-8.6,3.5c0,0-15.1,0-31,0c-8.6,0-17.5,0-24.2,0
		c-6.7,0-11.2,0-11.2,0V496c0,0,18.1,0,35.3,0c15.8,0,31,0,31,0c9.2,0,17.6-3.7,23.6-9.8c6-6,9.8-14.4,9.8-23.6c0,0,0-36.1,0-66.3
		h-21.2C474.8,426.5,474.8,462.6,474.8,462.6z"/>
	<path class="st0" d="M80.5,474.8c-7.9,0-15.6,0-21.4,0c-5.8,0-9.5,0-9.6,0c-3.4,0-6.3-1.3-8.6-3.5c-2.2-2.2-3.5-5.2-3.5-8.6
		c0,0,0-36.1,0-66.3H16.1c0,30.2,0,66.3,0,66.3c0,9.2,3.7,17.6,9.8,23.6c6,6,14.4,9.8,23.6,9.8c0,0,3.8,0,9.6,0s13.5,0,21.4,0
		c17.3,0,35.3,0,35.3,0v-21.2C115.8,474.8,97.7,474.8,80.5,474.8z"/>
	<path class="st0" d="M408.3,345.7v-46.5h-10.6h-53.9c-18.8,0-36.4,5.3-51.3,14.5c-9.9,6.1-18.5,13.8-25.7,22.9v-49.3l4.5,1.9
		c5.5,2.3,11.2,3.4,16.9,3.4c8.7,0,17.1-2.6,24.2-7.2c5.3-3.5,9.9-8.1,13.3-13.8c4.6,0.7,9.2,1,13.7,1c19.3,0,38.1-5.7,54-16.1
		c15.9-10.4,29-25.6,36.8-44.5l24.7-59.7l-46.7-19.3V79.4h-64.6c-8.8,0-17.4,1.2-25.6,3.4c-4.3-7.8-9.8-15.2-16.4-21.8l-45.7-45.7
		L210.4,61c-6.6,6.6-12.1,14-16.4,21.8c-8.2-2.2-16.7-3.4-25.6-3.4h-64.6v53.3l-46.7,19.3l24.7,59.7c7.8,18.9,20.9,34.1,36.8,44.5
		c15.9,10.4,34.7,16.1,54,16.1c4.6,0,9.2-0.3,13.7-1c3.5,5.6,8.1,10.3,13.3,13.8c7.1,4.7,15.6,7.2,24.2,7.2c5.6,0,11.4-1.1,16.9-3.4
		l4.5-1.9v49.3c-7.2-9-15.8-16.8-25.7-22.9c-14.9-9.2-32.5-14.5-51.3-14.5h-64.6v46.5H16.1v21.2H104h10.6h0h10.6h113.9h6.3h4.8h0.3
		h0h11h0h0.3h4.9h6.3h114h10.6h0h10.6H496h0v-21.2H408.3z M387.1,345.7H286.7c4.9-5.4,10.6-10.1,16.8-14
		c11.7-7.2,25.4-11.3,40.2-11.3h43.3V345.7z M224.1,271.2c-4.5,0-8.9-1.3-12.6-3.8c-0.9-0.6-1.8-1.3-2.6-2c-2.5-2.2-4.6-5-6-8.4
		l-0.2-0.6l-3.6-8.7l9.2-3.8c2.9-1.2,5.8-1.7,8.7-1.7c4.2,0,8.4,1.2,12,3.4c0.2,0.1,0.4,0.2,0.6,0.3c3,2,5.5,4.6,7.3,7.9
		c0.5,0.8,0.9,1.6,1.3,2.5l3.8,9.2l-9.2,3.8C229.9,270.6,227,271.2,224.1,271.2z M130.4,238.5c-12.5-8.2-22.7-20-28.9-34.9l-16.6-40
		l19.6-8.1c2.6,22.5,12.9,42.8,28.1,58c10.8,10.8,24.2,19.1,39.1,24l5.6,13.6c-1.6,0.1-3.1,0.2-4.7,0.2
		C157.6,251.1,142.9,246.7,130.4,238.5z M256.1,45.4L286.7,76c4.5,4.5,8.3,9.4,11.4,14.6c-8.9,4.6-16.9,10.6-23.9,17.6
		c-7.3,7.3-13.4,15.8-18.2,25.1c-4.7-9.3-10.9-17.8-18.2-25.1c-7-7-15.1-12.9-23.9-17.6c3.1-5.2,6.9-10.1,11.4-14.6L256.1,45.4z
		 M343.7,100.6h43.3v23.7v11.2v8.4c0,1,0,2-0.1,2.9c-0.8,20.1-9.2,38.2-22.5,51.5c-14,14-33.2,22.6-54.5,22.6h-29.3h-7.6h-6.4v-1
		v-11.2v-3.9V181v-3.4c0-21.3,8.6-40.5,22.6-54.5c5.1-5.1,10.9-9.5,17.3-13c3.1-1.7,6.4-3.2,9.8-4.5c3.3-1.3,6.7-2.3,10.2-3.1
		C332,101.3,337.8,100.6,343.7,100.6z M381.8,238.5c-12.5,8.2-27.2,12.7-42.3,12.7c-1.6,0-3.1-0.1-4.7-0.2l5.6-13.6
		c14.9-4.8,28.3-13.1,39.1-24c15.2-15.2,25.5-35.5,28.1-58l19.6,8.1l-16.6,40C404.5,218.4,394.2,230.3,381.8,238.5z M309.3,257
		c-1.4,3.4-3.5,6.2-6,8.4c-0.8,0.7-1.7,1.4-2.6,2c-3.7,2.4-8.1,3.8-12.6,3.8c-2.9,0-5.9-0.6-8.7-1.7l-9.2-3.8l3.8-9.2
		c0.4-0.9,0.8-1.7,1.3-2.5c1.8-3.3,4.3-5.9,7.3-7.9c0.2-0.1,0.4-0.2,0.6-0.3c3.6-2.2,7.7-3.4,12-3.4c2.9,0,5.9,0.6,8.7,1.7l9.2,3.8
		l-3.6,8.7L309.3,257z M205.6,110.2c6.4,3.5,12.2,7.9,17.3,13c14,14,22.6,33.2,22.6,54.5v3.4v23.9v3.9V220v1H239h-7.6h-29.3
		c-21.3,0-40.5-8.6-54.5-22.6c-13.3-13.3-21.7-31.4-22.5-51.5c0-1-0.1-1.9-0.1-2.9v-8.4v-11.2v-23.7h43.3c5.9,0,11.7,0.7,17.2,2
		c3.5,0.8,6.9,1.8,10.2,3.1C199.2,106.9,202.5,108.4,205.6,110.2z M125.1,345.7v-25.3h43.3c14.8,0,28.5,4.1,40.2,11.3
		c6.3,3.8,11.9,8.6,16.8,14H125.1z"/>
	<polygon class="st0" points="245.5,427.8 245.5,397.1 245.5,388.1 244.9,388.1 205.7,388.1 245.5,427.8 	"/>
	<polygon class="st0" points="267.3,388.1 266.7,388.1 266.7,397.1 266.7,427.8 306.4,388.1 	"/>
</g>
</svg>
